<svg width="54" height="21" viewBox="0 0 54 21" fill="none" xmlns="http://www.w3.org/2000/svg">
<g clip-path="url(#clip0_12_75)">
<path d="M9 1.5C6.61305 1.5 4.32387 2.44821 2.63604 4.13604C0.948212 5.82387 1.8021e-07 8.11305 0 10.5C-1.8021e-07 12.8869 0.948211 15.1761 2.63604 16.864C4.32387 18.5518 6.61305 19.5 9 19.5L9 10.5L9 1.5Z" fill="#0460E8"/>
<path d="M10 1.5C11.0506 1.5 12.0909 1.70734 13.0615 2.10938C14.0321 2.51141 14.9144 3.09995 15.6572 3.84277C16.4 4.58559 16.9886 5.46795 17.3906 6.43848C17.7927 7.40908 18 8.44943 18 9.5H10V1.5ZM12.5 5.5C11.6716 5.5 11 6.17157 11 7C11 7.82843 11.6716 8.5 12.5 8.5C13.3284 8.5 14 7.82843 14 7C14 6.17157 13.3284 5.5 12.5 5.5Z" fill="#7000FF"/>
</g>
<path d="M24.3038 16.192C23.4931 16.192 22.7731 16.0107 22.1438 15.648C21.5144 15.2853 21.0238 14.7893 20.6718 14.16C20.3198 13.5307 20.1438 12.8107 20.1438 12C20.1438 11.168 20.3198 10.4373 20.6718 9.808C21.0238 9.168 21.5144 8.66667 22.1438 8.304C22.7731 7.93067 23.4931 7.744 24.3038 7.744C25.3384 7.744 26.2078 8.016 26.9118 8.56C27.6158 9.104 28.0638 9.85067 28.2558 10.8H25.9678C25.8718 10.4267 25.6691 10.1333 25.3598 9.92C25.0611 9.70667 24.7038 9.6 24.2878 9.6C23.9144 9.6 23.5784 9.696 23.2798 9.888C22.9918 10.0693 22.7624 10.3413 22.5918 10.704C22.4318 11.056 22.3518 11.4773 22.3518 11.968C22.3518 12.3413 22.3998 12.6773 22.4958 12.976C22.5918 13.264 22.7251 13.5147 22.8958 13.728C23.0664 13.9307 23.2691 14.0853 23.5038 14.192C23.7491 14.2987 24.0104 14.352 24.2878 14.352C24.5651 14.352 24.8158 14.304 25.0398 14.208C25.2744 14.112 25.4718 13.9787 25.6318 13.808C25.7918 13.6267 25.9038 13.408 25.9678 13.152H28.2558C28.0638 14.08 27.6104 14.8213 26.8958 15.376C26.1918 15.92 25.3278 16.192 24.3038 16.192ZM30.1185 16V7.936H32.0385L32.2465 9.424C32.4385 9.072 32.6785 8.77333 32.9665 8.528C33.2652 8.28267 33.6012 8.09067 33.9745 7.952C34.3585 7.81333 34.7798 7.744 35.2385 7.744V10.032H34.5025C34.1825 10.032 33.8838 10.0693 33.6065 10.144C33.3398 10.2187 33.1052 10.3413 32.9025 10.512C32.6998 10.672 32.5452 10.896 32.4385 11.184C32.3318 11.472 32.2785 11.8347 32.2785 12.272V16H30.1185ZM36.7134 16V7.936H38.8734V16H36.7134ZM37.8014 6.832C37.4174 6.832 37.0974 6.72 36.8414 6.496C36.596 6.26133 36.4734 5.968 36.4734 5.616C36.4734 5.264 36.596 4.976 36.8414 4.752C37.0974 4.51733 37.4174 4.4 37.8014 4.4C38.196 4.4 38.516 4.51733 38.7614 4.752C39.0174 4.976 39.1454 5.264 39.1454 5.616C39.1454 5.968 39.0174 6.26133 38.7614 6.496C38.516 6.72 38.196 6.832 37.8014 6.832ZM44.928 16.192C44.1173 16.192 43.3973 16.0213 42.768 15.68C42.1493 15.328 41.664 14.8427 41.312 14.224C40.9707 13.5947 40.8 12.8693 40.8 12.048C40.8 11.2053 40.9707 10.464 41.312 9.824C41.664 9.17333 42.1493 8.66667 42.768 8.304C43.3867 7.93067 44.1067 7.744 44.928 7.744C45.728 7.744 46.4267 7.92 47.024 8.272C47.6213 8.624 48.0853 9.09867 48.416 9.696C48.7467 10.2933 48.912 10.9707 48.912 11.728C48.912 11.8347 48.912 11.9573 48.912 12.096C48.912 12.224 48.9013 12.3573 48.88 12.496H42.336V11.184H46.736C46.704 10.6613 46.5173 10.2507 46.176 9.952C45.8453 9.65333 45.4293 9.504 44.928 9.504C44.5653 9.504 44.2293 9.58933 43.92 9.76C43.6107 9.92 43.3653 10.1707 43.184 10.512C43.0133 10.8533 42.928 11.2853 42.928 11.808V12.272C42.928 12.7093 43.008 13.0933 43.168 13.424C43.3387 13.744 43.5733 13.9947 43.872 14.176C44.1707 14.3467 44.5173 14.432 44.912 14.432C45.3067 14.432 45.632 14.3467 45.888 14.176C46.1547 14.0053 46.352 13.7867 46.48 13.52H48.688C48.5387 14.0213 48.288 14.4747 47.936 14.88C47.584 15.2853 47.152 15.6053 46.64 15.84C46.128 16.0747 45.5573 16.192 44.928 16.192ZM51.657 16.08C51.2517 16.08 50.9263 15.9627 50.681 15.728C50.4357 15.4827 50.313 15.184 50.313 14.832C50.313 14.48 50.4357 14.1867 50.681 13.952C50.9263 13.7067 51.2517 13.584 51.657 13.584C52.041 13.584 52.3557 13.7067 52.601 13.952C52.8463 14.1867 52.969 14.48 52.969 14.832C52.969 15.184 52.8463 15.4827 52.601 15.728C52.3557 15.9627 52.041 16.08 51.657 16.08Z" fill="white"/>
<defs>
<clipPath id="clip0_12_75">
<rect width="18" height="18" fill="white" transform="translate(0 1.5)"/>
</clipPath>
</defs>
</svg>
