<svg width="18" height="18" viewBox="0 0 18 18" fill="none" xmlns="http://www.w3.org/2000/svg">
<g clip-path="url(#clip0_12_84)">
<path d="M9 0C6.61305 0 4.32387 0.948212 2.63604 2.63604C0.948212 4.32387 1.8021e-07 6.61305 0 9C-1.8021e-07 11.3869 0.948211 13.6761 2.63604 15.364C4.32387 17.0518 6.61305 18 9 18L9 9L9 0Z" fill="#0460E8"/>
<path d="M10 0C11.0506 0 12.0909 0.207337 13.0615 0.609375C14.0321 1.01141 14.9144 1.59995 15.6572 2.34277C16.4 3.08559 16.9886 3.96795 17.3906 4.93848C17.7927 5.90908 18 6.94943 18 8H10V0ZM12.5 4C11.6716 4 11 4.67157 11 5.5C11 6.32843 11.6716 7 12.5 7C13.3284 7 14 6.32843 14 5.5C14 4.67157 13.3284 4 12.5 4Z" fill="#7000FF"/>
</g>
<defs>
<clipPath id="clip0_12_84">
<rect width="18" height="18" fill="white"/>
</clipPath>
</defs>
</svg>
