<svg width="31" height="31" viewBox="0 0 31 31" fill="none" xmlns="http://www.w3.org/2000/svg">
<g clip-path="url(#clip0_12_77)">
<path d="M15.5 0C11.3891 0 7.44666 1.63303 4.53985 4.53984C1.63303 7.44666 3.10361e-07 11.3891 0 15.5C-3.10361e-07 19.6109 1.63303 23.5533 4.53984 26.4602C7.44666 29.367 11.3891 31 15.5 31L15.5 15.5V0Z" fill="#0460E8"/>
<path d="M17.2222 0C19.0315 8.7658e-07 20.8231 0.356439 22.4947 1.04883C24.1662 1.74119 25.6851 2.75587 26.9644 4.03516C28.2437 5.31442 29.2584 6.83348 29.9507 8.50488C30.6431 10.1763 30.9995 11.9682 30.9996 13.7773H17.2222V0ZM21.5279 6.88867C20.1012 6.88867 18.9449 8.04592 18.9449 9.47266C18.9451 10.8992 20.1013 12.0557 21.5279 12.0557C22.9544 12.0556 24.1107 10.8992 24.1109 9.47266C24.1109 8.04596 22.9546 6.88873 21.5279 6.88867Z" fill="#7000FF"/>
</g>
<defs>
<clipPath id="clip0_12_77">
<rect width="31" height="31" fill="white"/>
</clipPath>
</defs>
</svg>
